<svg width="1552" height="484" viewBox="0 0 1552 484" fill="none" xmlns="http://www.w3.org/2000/svg">
<path d="M339.227 182.895V157.272H473.846V182.895H421.695V326H391.377V182.895H339.227Z" fill="black"/>
<path d="M517.675 328.554C509.656 328.554 502.434 327.126 496.008 324.27C489.637 321.359 484.584 317.075 480.849 311.417C477.169 305.76 475.329 298.785 475.329 290.491C475.329 283.351 476.647 277.447 479.283 272.778C481.92 268.11 485.517 264.375 490.076 261.574C494.635 258.772 499.77 256.658 505.482 255.23C511.249 253.747 517.209 252.676 523.36 252.017C530.775 251.248 536.789 250.561 541.403 249.957C546.016 249.298 549.367 248.309 551.454 246.991C553.596 245.618 554.667 243.504 554.667 240.647V240.153C554.667 233.947 552.827 229.141 549.147 225.736C545.467 222.33 540.167 220.628 533.246 220.628C525.942 220.628 520.147 222.22 515.863 225.406C511.634 228.592 508.778 232.354 507.295 236.693L479.448 232.738C481.645 225.049 485.27 218.623 490.323 213.46C495.376 208.242 501.555 204.343 508.86 201.761C516.165 199.125 524.239 197.807 533.082 197.807C539.178 197.807 545.247 198.521 551.289 199.949C557.331 201.377 562.851 203.738 567.849 207.034C572.847 210.274 576.856 214.696 579.877 220.298C582.953 225.9 584.491 232.903 584.491 241.307V326H555.82V308.616H554.832C553.019 312.131 550.465 315.427 547.17 318.503C543.929 321.523 539.837 323.968 534.894 325.835C530.006 327.647 524.266 328.554 517.675 328.554ZM525.42 306.639C531.406 306.639 536.597 305.458 540.991 303.096C545.385 300.68 548.763 297.494 551.124 293.54C553.541 289.585 554.749 285.273 554.749 280.605V265.693C553.816 266.462 552.223 267.176 549.971 267.835C547.774 268.494 545.302 269.071 542.556 269.565C539.81 270.059 537.091 270.499 534.4 270.883C531.709 271.268 529.374 271.597 527.397 271.872C522.948 272.476 518.966 273.465 515.451 274.838C511.936 276.211 509.162 278.133 507.13 280.605C505.098 283.022 504.082 286.152 504.082 289.997C504.082 295.489 506.086 299.636 510.096 302.437C514.105 305.238 519.213 306.639 525.42 306.639Z" fill="black"/>
<path d="M669.678 328.471C657.32 328.471 646.61 325.753 637.548 320.315C628.485 314.878 621.455 307.271 616.457 297.494C611.513 287.718 609.042 276.293 609.042 263.221C609.042 250.149 611.513 238.698 616.457 228.866C621.455 219.035 628.485 211.4 637.548 205.963C646.61 200.525 657.32 197.807 669.678 197.807C682.036 197.807 692.746 200.525 701.809 205.963C710.871 211.4 717.874 219.035 722.817 228.866C727.816 238.698 730.315 250.149 730.315 263.221C730.315 276.293 727.816 287.718 722.817 297.494C717.874 307.271 710.871 314.878 701.809 320.315C692.746 325.753 682.036 328.471 669.678 328.471ZM669.843 304.579C676.544 304.579 682.146 302.739 686.65 299.059C691.154 295.325 694.504 290.326 696.701 284.065C698.953 277.804 700.079 270.828 700.079 263.139C700.079 255.395 698.953 248.392 696.701 242.13C694.504 235.814 691.154 230.789 686.65 227.054C682.146 223.319 676.544 221.451 669.843 221.451C662.978 221.451 657.265 223.319 652.707 227.054C648.203 230.789 644.825 235.814 642.573 242.13C640.376 248.392 639.278 255.395 639.278 263.139C639.278 270.828 640.376 277.804 642.573 284.065C644.825 290.326 648.203 295.325 652.707 299.059C657.265 302.739 662.978 304.579 669.843 304.579Z" fill="black"/>
<path d="M756.946 326V157.272H820.219C833.181 157.272 844.056 159.689 852.844 164.522C861.687 169.356 868.36 176.002 872.864 184.46C877.422 192.863 879.702 202.42 879.702 213.13C879.702 223.95 877.422 233.562 872.864 241.966C868.305 250.369 861.577 256.987 852.679 261.821C843.781 266.599 832.824 268.988 819.807 268.988H777.872V243.861H815.688C823.267 243.861 829.473 242.542 834.307 239.906C839.14 237.27 842.71 233.645 845.017 229.031C847.379 224.417 848.56 219.117 848.56 213.13C848.56 207.144 847.379 201.871 845.017 197.312C842.71 192.754 839.113 189.211 834.224 186.684C829.391 184.103 823.157 182.812 815.523 182.812H787.511V326H756.946Z" fill="#888888"/>
<path d="M904.933 326V199.454H933.85V220.545H935.168C937.475 213.24 941.43 207.611 947.032 203.656C952.689 199.647 959.143 197.642 966.393 197.642C968.04 197.642 969.88 197.724 971.913 197.889C974 197.999 975.73 198.191 977.103 198.466V225.9C975.84 225.461 973.835 225.076 971.089 224.747C968.398 224.362 965.789 224.17 963.262 224.17C957.825 224.17 952.936 225.351 948.597 227.713C944.313 230.02 940.935 233.233 938.464 237.352C935.992 241.471 934.756 246.222 934.756 251.605V326H904.933Z" fill="#888888"/>
<path d="M1046.9 328.471C1034.55 328.471 1023.84 325.753 1014.77 320.315C1005.71 314.878 998.681 307.271 993.683 297.494C988.74 287.718 986.268 276.293 986.268 263.221C986.268 250.149 988.74 238.698 993.683 228.866C998.681 219.035 1005.71 211.4 1014.77 205.963C1023.84 200.525 1034.55 197.807 1046.9 197.807C1059.26 197.807 1069.97 200.525 1079.04 205.963C1088.1 211.4 1095.1 219.035 1100.04 228.866C1105.04 238.698 1107.54 250.149 1107.54 263.221C1107.54 276.293 1105.04 287.718 1100.04 297.494C1095.1 307.271 1088.1 314.878 1079.04 320.315C1069.97 325.753 1059.26 328.471 1046.9 328.471ZM1047.07 304.579C1053.77 304.579 1059.37 302.739 1063.88 299.059C1068.38 295.325 1071.73 290.326 1073.93 284.065C1076.18 277.804 1077.31 270.828 1077.31 263.139C1077.31 255.395 1076.18 248.392 1073.93 242.13C1071.73 235.814 1068.38 230.789 1063.88 227.054C1059.37 223.319 1053.77 221.451 1047.07 221.451C1040.2 221.451 1034.49 223.319 1029.93 227.054C1025.43 230.789 1022.05 235.814 1019.8 242.13C1017.6 248.392 1016.5 255.395 1016.5 263.139C1016.5 270.828 1017.6 277.804 1019.8 284.065C1022.05 290.326 1025.43 295.325 1029.93 299.059C1034.49 302.739 1040.2 304.579 1047.07 304.579Z" fill="#888888"/>
<path d="M1132.85 326V199.454H1161.36V220.957H1162.84C1165.48 213.707 1169.85 208.05 1175.94 203.986C1182.04 199.866 1189.32 197.807 1197.77 197.807C1206.34 197.807 1213.57 199.894 1219.44 204.068C1225.37 208.187 1229.55 213.817 1231.97 220.957H1233.28C1236.08 213.927 1240.81 208.325 1247.45 204.15C1254.15 199.921 1262.09 197.807 1271.26 197.807C1282.91 197.807 1292.41 201.486 1299.77 208.846C1307.13 216.206 1310.81 226.944 1310.81 241.059V326H1280.9V245.673C1280.9 237.819 1278.82 232.079 1274.64 228.454C1270.47 224.774 1265.36 222.934 1259.32 222.934C1252.12 222.934 1246.49 225.186 1242.43 229.69C1238.42 234.139 1236.41 239.933 1236.41 247.074V326H1207.17V244.437C1207.17 237.901 1205.19 232.683 1201.24 228.784C1197.34 224.884 1192.23 222.934 1185.91 222.934C1181.63 222.934 1177.73 224.033 1174.21 226.23C1170.7 228.372 1167.9 231.42 1165.81 235.375C1163.72 239.274 1162.68 243.833 1162.68 249.051V326H1132.85Z" fill="#888888"/>
<path d="M1341.07 373.454V199.454H1370.39V220.38H1372.12C1373.66 217.305 1375.83 214.037 1378.63 210.576C1381.43 207.061 1385.22 204.068 1390 201.596C1394.78 199.07 1400.88 197.807 1408.29 197.807C1418.07 197.807 1426.88 200.306 1434.74 205.304C1442.65 210.247 1448.91 217.579 1453.52 227.301C1458.19 236.968 1460.53 248.831 1460.53 262.892C1460.53 276.788 1458.25 288.596 1453.69 298.318C1449.13 308.04 1442.92 315.454 1435.07 320.562C1427.21 325.67 1418.32 328.224 1408.38 328.224C1401.12 328.224 1395.11 327.016 1390.33 324.599C1385.55 322.183 1381.71 319.272 1378.8 315.866C1375.94 312.406 1373.72 309.138 1372.12 306.062H1370.89V373.454H1341.07ZM1370.31 262.727C1370.31 270.911 1371.47 278.078 1373.77 284.23C1376.13 290.381 1379.51 295.187 1383.91 298.647C1388.36 302.053 1393.74 303.755 1400.05 303.755C1406.64 303.755 1412.16 301.998 1416.61 298.483C1421.06 294.913 1424.41 290.052 1426.66 283.9C1428.97 277.694 1430.12 270.636 1430.12 262.727C1430.12 254.873 1429 247.897 1426.75 241.801C1424.5 235.704 1421.14 230.926 1416.7 227.466C1412.25 224.005 1406.7 222.275 1400.05 222.275C1393.68 222.275 1388.27 223.95 1383.82 227.301C1379.37 230.651 1376 235.347 1373.69 241.389C1371.44 247.431 1370.31 254.543 1370.31 262.727Z" fill="#888888"/>
<path d="M1549.26 199.454V222.522H1476.51V199.454H1549.26ZM1494.47 169.136H1524.29V287.937C1524.29 291.947 1524.9 295.022 1526.11 297.165C1527.37 299.252 1529.02 300.68 1531.05 301.449C1533.08 302.218 1535.33 302.602 1537.8 302.602C1539.67 302.602 1541.37 302.465 1542.91 302.19C1544.5 301.915 1545.71 301.668 1546.54 301.449L1551.56 324.764C1549.97 325.313 1547.69 325.917 1544.72 326.576C1541.81 327.236 1538.24 327.62 1534.01 327.73C1526.54 327.95 1519.82 326.824 1513.83 324.352C1507.84 321.825 1503.09 317.926 1499.58 312.653C1496.12 307.38 1494.41 300.79 1494.47 292.88V169.136Z" fill="#888888"/>
<path d="M132.98 109C153.062 109.012 172.881 113.571 190.948 122.337C209.016 131.102 224.864 143.846 237.303 159.612C249.742 175.378 258.448 193.756 262.769 213.368C267.09 232.979 266.913 253.315 262.252 272.848C257.59 292.381 248.565 310.605 235.854 326.152C223.143 341.699 207.076 354.165 188.858 362.615C170.641 371.065 150.746 375.28 130.667 374.942C110.588 374.604 90.8462 369.723 72.9231 360.665L70.9118 359.585L10.3226 374.711C9.15654 375.005 7.94076 375.041 6.75913 374.819C5.57751 374.597 4.45819 374.121 3.4784 373.424C2.49862 372.727 1.68172 371.826 1.08405 370.782C0.486389 369.739 0.1222 368.578 0.0166213 367.381V366.018L0.24934 364.638L15.3758 304.065L14.3286 302.071C6.74077 287.089 2.05936 270.806 0.531922 254.082L0.116357 247.732L0 241.98C0 206.712 14.0104 172.888 38.949 147.949C63.8877 123.01 97.7117 109 132.98 109Z" fill="#FFD1BF"/>
<path d="M42.2486 259.438C40.3387 262.595 42.388 266.662 46.0613 267.005L116.969 273.631C120.007 273.915 122.085 276.831 121.361 279.795L82.3712 439.513C81.0146 445.071 88.5435 448.182 91.506 443.288L224.404 223.744C226.315 220.588 224.266 216.52 220.592 216.177L149.685 209.551C146.647 209.267 144.569 206.353 145.292 203.388L184.233 43.6527C185.587 38.0952 178.058 34.986 175.097 39.8801L42.2486 259.438Z" fill="#FE4A01"/>
</svg>
