<svg width="266" height="484" viewBox="0 0 266 484" fill="none" xmlns="http://www.w3.org/2000/svg">
<path opacity="0.4" d="M132.98 109C153.062 109.012 172.881 113.571 190.948 122.337C209.016 131.102 224.864 143.846 237.303 159.612C249.742 175.378 258.448 193.756 262.769 213.368C267.09 232.979 266.913 253.315 262.252 272.848C257.59 292.381 248.565 310.605 235.854 326.152C223.143 341.699 207.076 354.165 188.858 362.615C170.641 371.065 150.746 375.28 130.667 374.942C110.588 374.604 90.8462 369.723 72.9231 360.665L70.9118 359.585L10.3226 374.711C9.15654 375.005 7.94076 375.041 6.75913 374.819C5.57751 374.597 4.45819 374.121 3.4784 373.424C2.49862 372.727 1.68172 371.826 1.08405 370.782C0.486389 369.739 0.1222 368.578 0.0166213 367.381V366.018L0.24934 364.638L15.3758 304.065L14.3286 302.071C6.74077 287.089 2.05936 270.806 0.531922 254.082L0.116357 247.732L0 241.98C0 206.712 14.0104 172.888 38.949 147.949C63.8877 123.01 97.7117 109 132.98 109Z" fill="#FF4A00"/>
<path d="M42.2486 259.438C40.3387 262.595 42.388 266.662 46.0613 267.005L116.969 273.631C120.007 273.915 122.085 276.831 121.361 279.795L82.3712 439.513C81.0146 445.071 88.5435 448.182 91.506 443.288L224.404 223.744C226.315 220.588 224.266 216.52 220.592 216.177L149.685 209.551C146.647 209.267 144.569 206.353 145.292 203.388L184.233 43.6527C185.587 38.0952 178.058 34.986 175.097 39.8801L42.2486 259.438Z" fill="#FE4A01"/>
</svg>
